<svg width="214" height="60" viewBox="0 0 214 60" fill="none" xmlns="http://www.w3.org/2000/svg">
<path fill-rule="evenodd" clip-rule="evenodd" d="M19.4902 20.0005H11.2962C11.2929 20.0005 11.2902 20.0005 11.2874 20.0005C11.2841 20.0005 11.2813 20.0005 11.2781 20.0005H3.08547C1.38061 20.0005 0 21.3811 0 23.085C0 23.1431 0.00185816 23.2016 0.00510993 23.2592C0.0222979 23.5681 0.0850106 23.8664 0.187209 24.1451C0.340972 24.5637 0.517032 24.978 0.714926 25.3864C1.9441 27.9306 3.98482 30.2213 6.47985 31.5684C6.74232 31.7106 7.01036 31.8416 7.28304 31.9628C8.00726 32.282 8.76539 32.5221 9.54674 32.6675H9.54813C10.1153 32.7739 10.696 32.8292 11.2874 32.8292C11.8783 32.8292 12.4589 32.7739 13.0266 32.6675H13.0275C13.8094 32.5231 14.5661 32.282 15.2903 31.9638C15.563 31.843 15.8315 31.7106 16.0944 31.5684C18.5899 30.2213 20.6306 27.9306 21.8598 25.3864C22.0489 24.9929 22.2203 24.5938 22.3699 24.1902C22.3792 24.1688 22.3871 24.146 22.394 24.1247C22.4925 23.852 22.5529 23.5612 22.5696 23.2592C22.5724 23.2016 22.5747 23.1431 22.5747 23.085C22.5747 21.3811 21.1937 20.0005 19.4902 20.0005Z" fill="white"/>
<path fill-rule="evenodd" clip-rule="evenodd" d="M7.56986 39.9401C6.84657 39.9401 6.32675 39.2456 6.52883 38.5511C7.12948 36.4899 9.03269 34.9844 11.2871 34.9844C13.542 34.9844 15.4452 36.4899 16.0458 38.5511C16.2479 39.2456 15.7281 39.9401 15.0048 39.9401H11.2871H7.56986Z" fill="white"/>
<path fill-rule="evenodd" clip-rule="evenodd" d="M44.1251 24.6477H27.7841C27.2178 24.6477 26.7593 24.1892 26.7593 23.6229C26.7593 23.0566 27.2178 22.5977 27.7841 22.5977H44.1251C44.6914 22.5977 45.1499 23.0566 45.1499 23.6229C45.1499 24.1892 44.6914 24.6477 44.1251 24.6477Z" fill="white"/>
<path fill-rule="evenodd" clip-rule="evenodd" d="M27.2508 32.6657C26.9702 32.6657 26.6901 32.551 26.4875 32.3257C26.1098 31.9044 26.1447 31.2563 26.5656 30.8777C32.4596 25.5862 33.5689 20.885 33.5796 20.8386C33.7032 20.2862 34.2527 19.9411 34.8037 20.0623C35.356 20.1864 35.7035 20.7345 35.5795 21.2869C35.5307 21.5043 34.3117 26.6783 27.935 32.4037C27.7394 32.5789 27.4946 32.6657 27.2508 32.6657Z" fill="white"/>
<path fill-rule="evenodd" clip-rule="evenodd" d="M31.1366 39.2238C30.5703 39.2238 30.1113 38.7653 30.1113 38.199V27.4789C30.1113 26.9126 30.5703 26.4536 31.1366 26.4536C31.7028 26.4536 32.1613 26.9126 32.1613 27.4789V38.199C32.1613 38.7653 31.7028 39.2238 31.1366 39.2238Z" fill="white"/>
<path fill-rule="evenodd" clip-rule="evenodd" d="M40.9145 39.2237C40.3483 39.2237 39.8893 38.7652 39.8893 38.199C39.8893 37.6327 40.3483 37.1737 40.9145 37.1737C41.2987 37.1737 41.6118 36.8611 41.6118 36.4769V30.1262C41.6118 29.1623 40.8277 28.3777 39.8628 28.3777H32.0892C31.523 28.3777 31.0645 27.9192 31.0645 27.3529C31.0645 26.7871 31.523 26.3281 32.0892 26.3281H39.8628C41.9574 26.3281 43.6614 28.0321 43.6614 30.1262V36.4769C43.6614 37.9918 42.4289 39.2237 40.9145 39.2237Z" fill="white"/>
<path fill-rule="evenodd" clip-rule="evenodd" d="M42.6363 32.0105H31.1366C30.5703 32.0105 30.1118 31.552 30.1118 30.9857C30.1118 30.4194 30.5703 29.9609 31.1366 29.9609H42.6363C43.2025 29.9609 43.661 30.4194 43.661 30.9857C43.661 31.552 43.2025 32.0105 42.6363 32.0105Z" fill="white"/>
<path fill-rule="evenodd" clip-rule="evenodd" d="M42.6363 35.238H31.1366C30.5703 35.238 30.1118 34.7795 30.1118 34.2132C30.1118 33.647 30.5703 33.1885 31.1366 33.1885H42.6363C43.2025 33.1885 43.661 33.647 43.661 34.2132C43.661 34.7795 43.2025 35.238 42.6363 35.238Z" fill="white"/>
<path fill-rule="evenodd" clip-rule="evenodd" d="M91.1755 37.1737H104.755V25.583C104.755 24.0941 103.544 22.8826 102.055 22.8826H91.1755V37.1737ZM105.78 39.2236H90.1507C89.5845 39.2236 89.126 38.7651 89.126 38.1988V21.8578C89.126 21.2915 89.5845 20.8325 90.1507 20.8325H102.055C104.674 20.8325 106.805 22.9634 106.805 25.5829V38.1988C106.805 38.7651 106.346 39.2236 105.78 39.2236Z" fill="white"/>
<path fill-rule="evenodd" clip-rule="evenodd" d="M92.733 28.3098C92.4375 28.3098 92.1463 28.1732 91.9591 27.9163C91.6478 27.4894 91.7416 26.8911 92.1686 26.5798C94.7217 24.7194 95.3311 22.0799 95.3367 22.0534C95.4515 21.5391 95.9611 21.213 96.4744 21.3231C96.9886 21.4351 97.317 21.94 97.2079 22.4547C97.1786 22.5909 96.4618 25.8189 93.2955 28.1258C93.1255 28.2503 92.9285 28.3098 92.733 28.3098Z" fill="white"/>
<path fill-rule="evenodd" clip-rule="evenodd" d="M103.198 31.5832C103.137 31.5832 103.075 31.5766 103.014 31.565C98.1438 30.6151 93.8812 26.8625 93.7024 26.7032C93.308 26.352 93.2727 25.7481 93.6234 25.3537C93.9741 24.9584 94.578 24.9231 94.9734 25.2733C95.0133 25.3086 99.0325 28.8396 103.381 29.6874C103.899 29.7886 104.237 30.2908 104.136 30.8092C104.047 31.2659 103.646 31.5832 103.198 31.5832Z" fill="white"/>
<path fill-rule="evenodd" clip-rule="evenodd" d="M56.6766 23.7014C56.1104 23.7014 55.6519 23.2429 55.6519 22.6767V21.0438C55.6519 20.4775 56.1104 20.019 56.6766 20.019C57.2429 20.019 57.7019 20.4775 57.7019 21.0438V22.6767C57.7019 23.2429 57.2429 23.7014 56.6766 23.7014Z" fill="white"/>
<path fill-rule="evenodd" clip-rule="evenodd" d="M61.767 23.7014C61.2007 23.7014 60.7422 23.2429 60.7422 22.6767V21.0438C60.7422 20.4775 61.2007 20.019 61.767 20.019C62.3332 20.019 62.7922 20.4775 62.7922 21.0438V22.6767C62.7922 23.2429 62.3332 23.7014 61.767 23.7014Z" fill="white"/>
<path fill-rule="evenodd" clip-rule="evenodd" d="M65.5251 24.3728H53.0834C52.5171 24.3728 52.0586 23.9143 52.0586 23.348C52.0586 22.7817 52.5171 22.3232 53.0834 22.3232H65.5251C66.0914 22.3232 66.5499 22.7817 66.5499 23.348C66.5499 23.9143 66.0914 24.3728 65.5251 24.3728Z" fill="white"/>
<mask id="mask0" mask-type="alpha" maskUnits="userSpaceOnUse" x="0" y="20" width="128" height="20">
<path fill-rule="evenodd" clip-rule="evenodd" d="M0 39.9831H128V20H0V39.9831Z" fill="white"/>
</mask>
<g mask="url(#mask0)">
<path fill-rule="evenodd" clip-rule="evenodd" d="M55.1515 34.5074H63.457V27.3762H55.1515V34.5074ZM63.6248 36.5569H54.9844C53.9466 36.5569 53.1021 35.7128 53.1021 34.675V27.2085C53.1021 26.1712 53.9466 25.3267 54.9844 25.3267H63.6248C64.6626 25.3267 65.5066 26.1712 65.5066 27.2085V34.675C65.5066 35.7128 64.6626 36.5569 63.6248 36.5569Z" fill="white"/>
<path fill-rule="evenodd" clip-rule="evenodd" d="M56.6766 27.0777C56.4443 27.0777 56.2106 26.9997 56.0192 26.838C55.5849 26.4752 55.5282 25.8286 55.8919 25.3947L58.1584 22.6902C58.5222 22.2563 59.1683 22.1987 59.6027 22.5629C60.0361 22.9262 60.0928 23.5728 59.7295 24.0067L57.4626 26.7112C57.26 26.9528 56.9697 27.0777 56.6766 27.0777Z" fill="white"/>
<path fill-rule="evenodd" clip-rule="evenodd" d="M123.534 30.2839H111.246C110.68 30.2839 110.222 29.8254 110.222 29.2591C110.222 28.6928 110.68 28.2343 111.246 28.2343H123.534C124.011 28.2343 124.399 27.8469 124.399 27.3703V24.1455C124.399 23.6689 124.011 23.281 123.534 23.281H111.246C110.68 23.281 110.222 22.822 110.222 22.2557C110.222 21.6899 110.68 21.231 111.246 21.231H123.534C125.141 21.231 126.448 22.5386 126.448 24.1455V27.3703C126.448 28.9767 125.141 30.2839 123.534 30.2839Z" fill="white"/>
<path fill-rule="evenodd" clip-rule="evenodd" d="M125.424 26.7712H111.246C110.68 26.7712 110.221 26.3127 110.221 25.7464C110.221 25.1802 110.68 24.7212 111.246 24.7212H125.424C125.99 24.7212 126.448 25.1802 126.448 25.7464C126.448 26.3127 125.99 26.7712 125.424 26.7712Z" fill="white"/>
<path fill-rule="evenodd" clip-rule="evenodd" d="M110.06 39.6204C109.53 39.6204 109.082 39.2139 109.039 38.6774C108.993 38.113 109.415 37.6187 109.979 37.5741C117.27 36.9902 117.639 30.8397 117.652 30.5777C117.678 30.0128 118.153 29.5831 118.723 29.6022C119.289 29.6282 119.726 30.1076 119.699 30.6734C119.567 33.5131 117.399 39.036 110.142 39.6172C110.114 39.6195 110.087 39.6204 110.06 39.6204Z" fill="white"/>
<path fill-rule="evenodd" clip-rule="evenodd" d="M126.976 39.9832C126.952 39.9832 126.928 39.9823 126.904 39.9804C119.871 39.4871 117.492 34.1365 117.394 33.9089C117.171 33.3891 117.41 32.7861 117.931 32.5626C118.449 32.3406 119.051 32.5784 119.276 33.0959C119.36 33.2855 121.302 37.5327 127.047 37.936C127.611 37.9754 128.037 38.4651 127.997 39.0299C127.96 39.5697 127.509 39.9832 126.976 39.9832Z" fill="white"/>
<path fill-rule="evenodd" clip-rule="evenodd" d="M122.322 35.1239C122.027 35.1239 121.734 34.9975 121.532 34.7518C121.171 34.3156 121.232 33.6694 121.669 33.3089L124.644 30.8506C125.08 30.4901 125.726 30.5514 126.086 30.9876C126.447 31.4238 126.386 32.07 125.949 32.4305L122.974 34.8888C122.783 35.0468 122.552 35.1239 122.322 35.1239Z" fill="white"/>
<path fill-rule="evenodd" clip-rule="evenodd" d="M113.814 35.1241C113.584 35.1241 113.354 35.047 113.162 34.889L110.187 32.4307C109.751 32.0702 109.69 31.424 110.05 30.9878C110.41 30.5516 111.056 30.4898 111.493 30.8508L114.468 33.3091C114.905 33.6696 114.966 34.3158 114.605 34.752C114.403 34.9977 114.11 35.1241 113.814 35.1241Z" fill="white"/>
<path fill-rule="evenodd" clip-rule="evenodd" d="M50.2666 25.8021C49.9484 25.8021 49.6358 25.6548 49.4351 25.3775L47.6132 22.8555C47.2815 22.397 47.3851 21.7569 47.8436 21.4252C48.3026 21.0935 48.9427 21.1971 49.2744 21.6556L51.0963 24.1771C51.428 24.6356 51.3244 25.2762 50.8659 25.6079C50.6843 25.7389 50.4743 25.8021 50.2666 25.8021Z" fill="white"/>
<path fill-rule="evenodd" clip-rule="evenodd" d="M48.0511 39.1511C47.8053 39.1511 47.5587 39.0638 47.3626 38.8854C46.9436 38.5045 46.9125 37.8565 47.2925 37.4375L48.124 36.5219C48.6606 35.9305 48.9565 35.1654 48.9565 34.3678V29.1306H47.5721C47.0059 29.1306 46.5474 28.6711 46.5474 28.1053C46.5474 27.5391 47.0059 27.0806 47.5721 27.0806H49.9812C50.5475 27.0806 51.006 27.5391 51.006 28.1053V34.3678C51.006 35.6764 50.5215 36.9307 49.6421 37.8997L48.8106 38.8153C48.6081 39.0383 48.3303 39.1511 48.0511 39.1511Z" fill="white"/>
<path fill-rule="evenodd" clip-rule="evenodd" d="M65.5254 39.6793H54.0239C50.2077 39.6793 48.9521 35.7437 48.9005 35.5764C48.7342 35.0353 49.0376 34.462 49.5783 34.2952C50.1181 34.1289 50.6899 34.4304 50.8581 34.9688C50.8953 35.0845 51.7342 37.6292 54.0239 37.6292H65.5254C66.0917 37.6292 66.5502 38.0882 66.5502 38.6545C66.5502 39.2208 66.0917 39.6793 65.5254 39.6793Z" fill="white"/>
<path fill-rule="evenodd" clip-rule="evenodd" d="M63.9737 30.4628H54.4223C53.8941 30.4628 53.4658 30.0345 53.4658 29.5058C53.4658 28.9781 53.8941 28.5498 54.4223 28.5498H63.9737C64.5023 28.5498 64.9302 28.9781 64.9302 29.5058C64.9302 30.0345 64.5023 30.4628 63.9737 30.4628Z" fill="white"/>
<path fill-rule="evenodd" clip-rule="evenodd" d="M63.9737 33.4379H54.4223C53.8941 33.4379 53.4658 33.01 53.4658 32.4814C53.4658 31.9532 53.8941 31.5249 54.4223 31.5249H63.9737C64.5023 31.5249 64.9302 31.9532 64.9302 32.4814C64.9302 33.01 64.5023 33.4379 63.9737 33.4379Z" fill="white"/>
<path fill-rule="evenodd" clip-rule="evenodd" d="M73.8522 39.7304C73.2581 39.7304 72.7764 39.2482 72.7764 38.6545C72.7764 38.0599 73.2581 37.5777 73.8522 37.5777C75.2761 37.5777 76.4341 36.4196 76.4341 34.9963V21.4777C76.4341 20.8836 76.9163 20.4019 77.5105 20.4019C78.1046 20.4019 78.5864 20.8836 78.5864 21.4777V34.9963C78.5864 37.6065 76.4629 39.7304 73.8522 39.7304Z" fill="white"/>
<path fill-rule="evenodd" clip-rule="evenodd" d="M68.9267 35.1755C68.7715 35.1755 68.6145 35.1425 68.4658 35.0714C67.9288 34.8169 67.6998 34.1749 67.9548 33.6379C68.8565 31.7398 71.0175 25.2962 71.0394 25.2311C71.228 24.6681 71.837 24.3652 72.4014 24.5524C72.9654 24.7415 73.2692 25.3514 73.0801 25.9149C72.99 26.1848 70.8554 32.5471 69.8994 34.5609C69.715 34.9488 69.3289 35.1755 68.9267 35.1755Z" fill="white"/>
<path fill-rule="evenodd" clip-rule="evenodd" d="M85.9664 35.2894C85.546 35.2894 85.146 35.0414 84.9732 34.6284L81.2156 25.6507C80.9861 25.1021 81.2444 24.4717 81.793 24.2427C82.3402 24.0128 82.9715 24.271 83.2006 24.8197L86.9587 33.7978C87.1882 34.346 86.9299 34.9763 86.3817 35.2058C86.2461 35.2625 86.1049 35.2894 85.9664 35.2894Z" fill="white"/>
<path fill-rule="evenodd" clip-rule="evenodd" d="M100.585 33.8801C100.527 33.8801 100.467 33.875 100.408 33.8639L95.6256 32.9659C95.1067 32.8688 94.7648 32.3685 94.8623 31.8496C94.9603 31.3312 95.4583 30.9865 95.9786 31.0859L100.761 31.9834C101.28 32.081 101.622 32.5808 101.524 33.0997C101.438 33.5596 101.037 33.8801 100.585 33.8801Z" fill="white"/>
<path fill-rule="evenodd" clip-rule="evenodd" d="M101.513 36.6785C101.454 36.6785 101.395 36.6729 101.335 36.6618L93.6142 35.2129C93.0953 35.1153 92.7534 34.6155 92.8505 34.0956C92.948 33.5768 93.4455 33.2353 93.9672 33.3324L101.688 34.7818C102.207 34.8789 102.549 35.3792 102.452 35.8981C102.366 36.358 101.964 36.6785 101.513 36.6785Z" fill="white"/>
<path fill-rule="evenodd" clip-rule="evenodd" d="M92.3281 31.4383C91.8798 31.4383 91.4798 31.1219 91.3902 30.6662C91.2884 30.1478 91.6261 29.6452 92.1441 29.543C96.6176 28.6641 99.0304 27.2416 100.274 26.1913H94.9978C94.4691 26.1913 94.0413 25.7635 94.0413 25.2348C94.0413 24.7066 94.4691 24.2788 94.9978 24.2788H102.343C102.665 24.2788 102.965 24.44 103.142 24.7085C103.319 24.977 103.349 25.3166 103.222 25.6125C103.151 25.7774 101.383 29.6777 92.5134 31.4202C92.4512 31.4322 92.3889 31.4383 92.3281 31.4383Z" fill="white"/>
</g>
<path opacity="0.8" d="M153.828 28.0156C153.307 27.9115 153.021 27.625 152.969 27.1562C153.021 26.6875 153.307 26.401 153.828 26.2969H157.344V21.4531C157.396 20.8802 157.708 20.5677 158.281 20.5156C158.854 20.5677 159.167 20.8802 159.219 21.4531V26.2969H163.047C163.516 26.349 163.776 26.6354 163.828 27.1562C163.776 27.6771 163.516 27.9635 163.047 28.0156H159.219V36.9219H163.594C164.115 36.974 164.401 37.2604 164.453 37.7812C164.401 38.3021 164.115 38.5885 163.594 38.6406H152.969C152.448 38.5885 152.161 38.3021 152.109 37.7812C152.161 37.2604 152.448 36.974 152.969 36.9219H157.344V28.0156H153.828ZM146.797 33.0156C146.276 33.276 145.885 33.1719 145.625 32.7031C145.365 32.1302 145.469 31.6875 145.938 31.375C147.812 29.9167 149.219 28.3021 150.156 26.5312C150.26 26.3229 150.182 26.1927 149.922 26.1406H146.484C146.068 26.0885 145.833 25.8281 145.781 25.3594C145.833 24.8906 146.068 24.6302 146.484 24.5781H151.484C151.953 24.6302 152.214 24.9167 152.266 25.4375C152.266 25.9583 152.135 26.4531 151.875 26.9219C151.406 27.8594 150.859 28.7448 150.234 29.5781V38.7969C150.182 39.2656 149.896 39.526 149.375 39.5781C148.854 39.526 148.568 39.2656 148.516 38.7969V31.4531C147.995 32.026 147.422 32.5469 146.797 33.0156ZM150.156 24.1094C149.635 24.2656 149.245 24.1354 148.984 23.7188C148.932 23.6146 148.854 23.4583 148.75 23.25C148.49 22.5729 148.307 22.1302 148.203 21.9219C147.995 21.4531 148.125 21.0885 148.594 20.8281C149.062 20.6719 149.453 20.8021 149.766 21.2188C149.87 21.375 150 21.6615 150.156 22.0781C150.365 22.4948 150.495 22.7812 150.547 22.9375C150.755 23.4583 150.625 23.849 150.156 24.1094ZM153.516 33.0156C153.047 33.3281 152.656 33.3021 152.344 32.9375C151.927 32.5208 151.458 32 150.938 31.375C150.625 31.0104 150.625 30.6458 150.938 30.2812C151.302 30.0208 151.693 30.0208 152.109 30.2812C152.214 30.3854 152.37 30.5677 152.578 30.8281C153.099 31.2969 153.438 31.6094 153.594 31.7656C153.906 32.2344 153.88 32.651 153.516 33.0156ZM168.125 38.4062C167.396 38.4062 167.031 38.0156 167.031 37.2344V22.9375C167.031 22.1562 167.396 21.7656 168.125 21.7656H183.125C183.646 21.8177 183.932 22.1302 183.984 22.7031C183.932 23.224 183.646 23.5104 183.125 23.5625H169.375C169.062 23.5625 168.88 23.7448 168.828 24.1094V36.0625C168.828 36.375 169.036 36.5573 169.453 36.6094H183.438C183.958 36.6615 184.245 36.974 184.297 37.5469C184.245 38.0677 183.958 38.3542 183.438 38.4062H168.125ZM171.094 35.5156C170.521 35.776 170.052 35.6719 169.688 35.2031C169.427 34.6823 169.531 34.2656 170 33.9531C171.51 33.0156 173.255 31.7135 175.234 30.0469C173.568 28.5365 172.083 27.2604 170.781 26.2188C170.365 25.8542 170.312 25.4375 170.625 24.9688C171.042 24.6042 171.484 24.5781 171.953 24.8906C173.464 26.1406 175.052 27.4427 176.719 28.7969C178.333 27.3385 179.635 26.0365 180.625 24.8906C181.146 24.526 181.615 24.5 182.031 24.8125C182.344 25.2292 182.344 25.6458 182.031 26.0625C181.198 27.0521 179.87 28.3542 178.047 29.9688C180.13 31.7396 181.589 33.0156 182.422 33.7969C182.839 34.2135 182.891 34.7083 182.578 35.2812C182.214 35.6979 181.745 35.75 181.172 35.4375C180.964 35.2812 180.651 34.9948 180.234 34.5781C178.724 33.1198 177.526 32 176.641 31.2188C174.349 33.1458 172.5 34.5781 171.094 35.5156Z" fill="white"/>
<rect opacity="0.6" x="136" y="23" width="1" height="14" rx="0.5" fill="white"/>
</svg>
